<svg xmlns="http://www.w3.org/2000/svg" viewBox="0 0 42.96 39.28"><defs><style>.cls-1{fill:#fff;}</style></defs><title>Fichier 16</title><g id="Calque_2" data-name="Calque 2"><g id="Page"><path class="cls-1" d="M25.57,33.51a3.59,3.59,0,0,1,.6,3.1,3.51,3.51,0,0,1-1.37,2,3.6,3.6,0,0,1-4.55-.27,3.64,3.64,0,0,1-.29-5,10.2,10.2,0,0,1-1-.45,5.19,5.19,0,0,1-2.69-3.53Q14,19.68,11.71,10.05c-.42-1.78-.82-3.57-1.26-5.35A3.38,3.38,0,0,0,7.73,2,2.65,2.65,0,0,0,7.17,2Q5.46,2,3.75,2H3.63a1.94,1.94,0,0,1-.42,1A1.81,1.81,0,0,1,0,1.8,1.81,1.81,0,0,1,2.16,0l.26,0c1.64,0,3.28,0,4.91,0a5.29,5.29,0,0,1,4.94,4c.31,1.29.62,2.59.91,3.89,0,.18.12.21.29.21H41.94a.92.92,0,0,1,1,.74,1.33,1.33,0,0,1,0,.56q-.72,2.89-1.46,5.79l-2.91,11.5a1,1,0,0,1-1.08.83H17.81a7,7,0,0,0,.86,2.54,3.3,3.3,0,0,0,2.77,1.43H39a1.79,1.79,0,0,1,.46,0,1,1,0,0,1-.25,1.87h-.47a3.57,3.57,0,0,1,.66,2.88,3.44,3.44,0,0,1-1.72,2.4,3.59,3.59,0,0,1-5.2-1.9,3.53,3.53,0,0,1-.16-1.74A3.62,3.62,0,0,1,33,33.51ZM21.38,14h4.88V10.1H20.93ZM33,14l.51-3.91H28.18V14ZM13.69,10.09a.41.41,0,0,0,0,.09c.28,1.22.58,2.44.86,3.67,0,.13.08.17.22.17h4.67L19,10.09ZM39.8,14l1-3.91H35.63c-.12,0-.16,0-.18.16-.11.87-.23,1.74-.34,2.61L35,14ZM26.21,19.85V15.94H21.6L22,19.85Zm1.93-3.91v3.91h4.13l.51-3.91Zm-8.47,0h-4.6c0,.05,0,.08,0,.12.29,1.21.58,2.43.85,3.64,0,.14.1.16.22.16h4ZM34.2,19.85h4c.12,0,.14-.06.16-.15.21-.84.43-1.68.64-2.52.1-.41.21-.83.31-1.25h-4.6Zm-8,5.84V21.78h-3.9l.44,3.91Zm1.92-3.91v3.91h3.43L32,21.78ZM17.36,25.69h3.42l-.45-3.92H16.44ZM34,21.77l-.52,3.93h3.25c.14,0,.18-.05.22-.17.27-1.09.54-2.18.82-3.26,0-.16.07-.33.12-.5ZM22.69,37.37A1.69,1.69,0,1,0,21,35.68,1.71,1.71,0,0,0,22.69,37.37Zm13.21,0a1.69,1.69,0,1,0-1.72-1.63A1.7,1.7,0,0,0,35.9,37.37Z"/></g></g></svg>