<svg xmlns="http://www.w3.org/2000/svg" viewBox="0 0 55.12 43.86"><defs><style>.cls-1{fill:#fff;}</style></defs><title>Fichier 21</title><g id="Calque_2" data-name="Calque 2"><g id="Page"><path class="cls-1" d="M55.12,15.73c0,.12-.07.23-.1.35A2.11,2.11,0,0,1,54,17.28c-2.05,1.08-4.08,2.17-6.12,3.26a.35.35,0,0,0-.23.36q0,3.6,0,7.19a.35.35,0,0,0,.22.35A3.13,3.13,0,0,1,49.49,31a3.52,3.52,0,0,1-.87,2.62,18.75,18.75,0,0,1-1.31,1.5.72.72,0,0,1-1.15,0,9.4,9.4,0,0,1-1.58-1.92A4,4,0,0,1,44,31.75a3.25,3.25,0,0,1,1.69-3.33c.12-.06.19-.11.19-.26,0-2.13,0-4.27,0-6.4a1.15,1.15,0,0,0,0-.16l-.21.11-3.26,1.73a.32.32,0,0,0-.2.33c0,4.64,0,9.28,0,13.92A2.4,2.4,0,0,1,41,39.86,25.19,25.19,0,0,1,33.93,43a23.14,23.14,0,0,1-5,.8A23.57,23.57,0,0,1,18.51,42a24.85,24.85,0,0,1-4.19-2.25,2.23,2.23,0,0,1-1-2q0-6.75,0-13.51a.64.64,0,0,0-.39-.67C9,21.48,5.11,19.37,1.18,17.29A2,2,0,0,1,0,15.49a1.91,1.91,0,0,1,1.09-1.82l6.22-3.31L26,.41a3.31,3.31,0,0,1,3.28.05L51.11,12.12l2.82,1.5a2.06,2.06,0,0,1,1.15,1.48.36.36,0,0,0,0,.09ZM2.38,15.46l.36.2c4.18,2.2,8.36,4.39,12.54,6.61q5.74,3,11.47,6.12a1.55,1.55,0,0,0,1.61,0c1.09-.6,2.18-1.18,3.28-1.75l9.24-4.85c1.61-.85,3.22-1.72,4.82-2.58.07,0,.16-.12.16-.18a5.57,5.57,0,0,0-.13-1.16,2.21,2.21,0,0,0-2.26-1.54H27.75A.84.84,0,0,1,27,15.7a.77.77,0,0,1,.31-.92A1.28,1.28,0,0,1,28,14.6H42.79c.31,0,.62,0,.93,0a3.86,3.86,0,0,1,3.52,2.34,12,12,0,0,1,.4,1.24l5.1-2.72-.3-.17Q40.38,8.87,28.33,2.42a1.53,1.53,0,0,0-1.56,0L2.62,15.32ZM40,34.89l-.25.13a23.89,23.89,0,0,1-3.68,1.76,23.44,23.44,0,0,1-6.77,1.48A24.36,24.36,0,0,1,24.05,38c-.47-.07-.93-.17-1.38-.27A.73.73,0,1,1,23,36.34a21.7,21.7,0,0,0,8,.27,22.65,22.65,0,0,0,8.86-3.35A.32.32,0,0,0,40,33V24.59c0-.06,0-.11,0-.19l-.29.15q-5.22,2.77-10.43,5.56a3.45,3.45,0,0,1-3.46,0c-3.34-1.8-6.69-3.57-10-5.35l-.25-.13a1,1,0,0,0,0,.16c0,2.75,0,5.49,0,8.24a.27.27,0,0,0,.18.28c.85.47,1.7.94,2.56,1.4a.75.75,0,0,1,.39,1,.74.74,0,0,1-1,.32l-1.85-1-.25-.14c0,1,0,1.92,0,2.86,0,.08.09.17.16.22.62.37,1.23.76,1.87,1.1A21.67,21.67,0,0,0,26,41.61a21.22,21.22,0,0,0,5.34-.22A22.17,22.17,0,0,0,39.88,38a.28.28,0,0,0,.12-.19C40,36.85,40,35.89,40,34.89Zm6.72-1.26A7.28,7.28,0,0,0,48,31.91a1.92,1.92,0,0,0-.52-2,1,1,0,0,0-1.35,0,1.86,1.86,0,0,0-.58,2A6.05,6.05,0,0,0,46.73,33.63Z"/><path class="cls-1" d="M20.18,35.52a4.3,4.3,0,0,1,.72.31.69.69,0,0,1,.22.89.72.72,0,0,1-.86.36,3.51,3.51,0,0,1-.57-.21.71.71,0,0,1-.33-.82A.78.78,0,0,1,20.18,35.52Z"/></g></g></svg>