<svg xmlns="http://www.w3.org/2000/svg" viewBox="0 0 44.24 47.31"><defs><style>.cls-1{fill:#fff;}</style></defs><title>Fichier 18</title><g id="Calque_2" data-name="Calque 2"><g id="Page"><path class="cls-1" d="M.63,47.31a.86.86,0,0,1-.54-.43.78.78,0,0,1,.65-1.14H43.32a.89.89,0,0,1,.63.19.79.79,0,0,1-.24,1.35l-.1,0Z"/><path class="cls-1" d="M39.22,20v2.41a.79.79,0,0,1-.87.87H38V37.58h.37a.8.8,0,0,1,.87.86v2.42h2.1a.79.79,0,0,1,.46,1.44,2.59,2.59,0,0,1-.42.14.48.48,0,0,1-.12,0H3a.79.79,0,0,1-.87-.75.77.77,0,0,1,.8-.83H5V40.6c0-.72,0-1.44,0-2.16a.79.79,0,0,1,.86-.86h.38V23.3H5.84A.77.77,0,0,1,5,22.48c0-.74,0-1.48,0-2.22V20H2.91a.78.78,0,0,1-.76-1,.75.75,0,0,1,.7-.53,1.08,1.08,0,0,1,.18,0H41.21a.81.81,0,0,1,.88.55.78.78,0,0,1-.75,1H39.22Zm-8,17.56V23.3H30.8a.79.79,0,0,1-.87-.87V20H26.77v2.39a.81.81,0,0,1-.87.88h-.38V37.58h.31a.83.83,0,0,1,.94.93v2.33h3.16V38.41a.79.79,0,0,1,.82-.83Zm-18.12,0h.31a.81.81,0,0,1,.93.93c0,.71,0,1.42,0,2.13v.2h3.16V38.45a.8.8,0,0,1,.87-.87h.38V23.3h-.38a.79.79,0,0,1-.87-.87V20H14.31v.23c0,.73,0,1.46,0,2.18a.79.79,0,0,1-.84.86h-.4Zm-1.6-14.27H7.86V37.57h3.6Zm8.86,0V37.57h3.59V23.3Zm12.47,0V37.58h3.38c.18,0,.23-.05.23-.23q0-6.91,0-13.84v-.21Zm4.84-1.6V20H31.52v1.69Zm-31,0h6.11V20H6.6Zm18.57,0V20H19.06v1.68Zm6.35,19.14h6.12V39.17H31.52Zm-24.92,0h6.11V39.17H6.6Zm12.46,0h6.11V39.17H19.06Z"/><path class="cls-1" d="M22.12,15.14H.87A.81.81,0,0,1,.05,14.1a.92.92,0,0,1,.43-.48L6.34,9.88,21.54.19a1,1,0,0,1,1.15,0l21,13.4a1.27,1.27,0,0,1,.43.4.77.77,0,0,1-.64,1.15H22.12Zm18.53-1.59v0l-.14-.1L22.27,1.8a.25.25,0,0,0-.31,0L3.7,13.43l-.16.12Z"/></g></g></svg>