<svg xmlns="http://www.w3.org/2000/svg" viewBox="0 0 48.08 53.99"><defs><style>.cls-1{fill:#fff;}</style></defs><title>Fichier 15</title><g id="Calque_2" data-name="Calque 2"><g id="Page"><path class="cls-1" d="M10.21,54a2.13,2.13,0,0,1-.5-.44.86.86,0,0,1,.11-1.06c.2-.25.41-.49.63-.75L3.16,45.2,1.49,46.52A.9.9,0,1,1,.33,45.14c.33-.28.68-.54,1-.82l.22-.18L1,43.62a.9.9,0,0,1-.1-1.21,3.68,3.68,0,0,1,.33-.35L5,38.37a2.23,2.23,0,0,1,3.23-.11l.28.24c.3-.28.57-.57.88-.82,1.12-.94,2.23-1.9,3.39-2.79a10.18,10.18,0,0,1,6.52-2.07c2.3,0,4.6,0,6.9,0a8.57,8.57,0,0,1,1.24.05,3.05,3.05,0,0,1,2.66,3.34,8.36,8.36,0,0,1-.25,1.14c.53-.06,1.07.13,1.6-.31,1.9-1.6,3.83-3.16,5.75-4.74a3.24,3.24,0,0,1,1.94-.76,2.73,2.73,0,0,1,2.78,3.67,3.54,3.54,0,0,1-1.08,1.61l-5.22,4.6c-.59.51-1.16,1.06-1.79,1.51A7.45,7.45,0,0,1,29.9,44.3c-1.16.09-2.32.13-3.48.18a23,23,0,0,0-5.28.76,9.39,9.39,0,0,0-2.84,1.35c-.16.11-.33.2-.44.27A9.2,9.2,0,0,1,18.18,48a2.13,2.13,0,0,1-.69,1.82l-3.91,3.88a3.12,3.12,0,0,1-.43.27h-.49l-1.06-.82c-.27.3-.48.68-.9.82Zm5.9-8.19c.48-.28.94-.53,1.38-.83a11,11,0,0,1,3-1.42,23.15,23.15,0,0,1,5.67-.85c1.28-.07,2.56-.12,3.83-.24a5.86,5.86,0,0,0,3.47-1.56c2-1.83,4.09-3.63,6.15-5.45a1.73,1.73,0,0,0,.58-1.12.85.85,0,0,0-.65-.93,1.38,1.38,0,0,0-1.25.28c-.37.29-.73.59-1.09.89l-4.86,4a2.5,2.5,0,0,1-1.66.59H20.78a2,2,0,0,1-.42,0A.88.88,0,0,1,19.71,38a.9.9,0,0,1,.93-.65h6a1.77,1.77,0,0,0,1-.25,1.35,1.35,0,0,0,0-2.28,1.73,1.73,0,0,0-.92-.21H19.3a16.91,16.91,0,0,0-1.74.1A7.42,7.42,0,0,0,14.31,36,31.72,31.72,0,0,0,10,39.57c-.14.12-.27.24-.41.38Zm-3.24,6.05.06,0,3.31-3.29a.44.44,0,0,0,0-.7c-.24-.21-.51-.39-.76-.61L8.2,40.76c-.13-.11-.3-.2-.42-.32s-.5-.55-.76-.81-.51-.27-.81,0L4.08,41.78c-.38.37-.75.75-1.15,1.15.37.35.73.7,1.1,1l7.14,6.41C11.73,50.87,12.31,51.36,12.87,51.85Z"/><path class="cls-1" d="M10.7,54c.42-.14.63-.52.9-.82l1.06.82Z"/><path class="cls-1" d="M45.47,25.37A11.25,11.25,0,0,1,45,26.89a4.72,4.72,0,0,1-4.08,2.95,6.44,6.44,0,0,1-.76,0h-31A4.82,4.82,0,0,1,4.78,27.4a4.43,4.43,0,0,1-.6-1.87c0-.05,0-.09,0-.16H2.37a.9.9,0,0,1,0-1.79H4A20.91,20.91,0,0,1,21.26,4a3.54,3.54,0,1,1,7,0c.47.1.93.19,1.39.31a20.25,20.25,0,0,1,8.43,4.26,20.48,20.48,0,0,1,7,11.54c.23,1.06.32,2.15.45,3.22,0,.21.08.28.29.27h1.32a.9.9,0,1,1,0,1.79H45.47ZM5.8,23.71h38a19,19,0,0,0-37.95,0Zm37.79,1.53H6a2.88,2.88,0,0,0,.6,1.62,3.11,3.11,0,0,0,2.59,1.2h31.4a3.06,3.06,0,0,0,3-2.82ZM26.48,3.73A1.69,1.69,0,0,0,25.63,2a1.6,1.6,0,0,0-1.81.07,1.64,1.64,0,0,0-.73,1.62Z"/></g></g></svg>