<svg xmlns="http://www.w3.org/2000/svg" viewBox="0 0 50.75 42.03"><defs><style>.cls-1{fill:#fff;}</style></defs><title>Fichier 14</title><g id="Calque_2" data-name="Calque 2"><g id="Page"><path class="cls-1" d="M44.86,22.61a.71.71,0,0,0,.73-.55c.06-.24.1-.5.17-.75a1.22,1.22,0,0,1,1.3-1,.25.25,0,0,0,.24-.16,1.82,1.82,0,0,1,2.1-.9,1.87,1.87,0,1,1-2.2,2.54.7.7,0,0,0-.13-.17,1.76,1.76,0,0,0-.09.2c0,.12,0,.26-.08.39A2,2,0,0,1,45,23.92c-.14,0-.19.06-.19.2q0,8,0,16v.14h.83a.88.88,0,1,1,0,1.75H2a1.33,1.33,0,0,1-.56-.11A.84.84,0,0,1,1,41a.88.88,0,0,1,.84-.67h.88V20a.35.35,0,0,0-.16-.32A6.21,6.21,0,0,1,0,14.57,1.37,1.37,0,0,1,.15,14c.5-1,1-2.09,1.52-3.13C2.77,8.66,3.88,6.43,5,4.19a.68.68,0,0,0,.08-.31c0-1,0-2,0-2.94A.91.91,0,0,1,6,0H41.89a.89.89,0,0,1,.89,1.15.72.72,0,0,0,0,.25c0,.82,0,1.65,0,2.47a1.31,1.31,0,0,0,.11.52c1.4,3,2.78,6.05,4.23,9a3.67,3.67,0,0,1,.19,2.66A6.31,6.31,0,0,1,45,19.57a.33.33,0,0,0-.14.23c0,.91,0,1.82,0,2.73C44.85,22.56,44.86,22.58,44.86,22.61ZM30.42,40.27V23c0-.57.24-.81.8-.81h9.35c.57,0,.8.23.8.8V40.26h1.71V20.18C39.65,21,37,20,35.2,17a6.41,6.41,0,0,1-11.46,0A6.18,6.18,0,0,1,18,20.47a6.2,6.2,0,0,1-5.76-3.56A6.21,6.21,0,0,1,9,20a6.6,6.6,0,0,1-4.49.18V40.27ZM24.49,4.55v9H34.8c0-.09,0-.15,0-.22-.34-1.38-.69-2.76-1-4.14a.93.93,0,0,1,0-.37.53.53,0,0,1,.51-.39.54.54,0,0,1,.55.46c.16.61.31,1.23.46,1.85l.69,2.8h9.27l-.1-.24q-2-4.26-4-8.53a.31.31,0,0,0-.33-.21H33.69a1.57,1.57,0,0,0,0,.16c.19.78.39,1.56.58,2.34a.55.55,0,0,1-.37.74.56.56,0,0,1-.69-.48c-.07-.29-.14-.59-.22-.89-.15-.62-.31-1.24-.47-1.86ZM14,4.55H12a.65.65,0,1,1,0-1.3H24.22l16.53,0H41V1.76H6.81V3.24H10a.65.65,0,0,1,.69.69.66.66,0,0,1-.72.61h-3a.23.23,0,0,0-.25.16l-.37.75q-1.87,3.8-3.77,7.59l-.24.52h9.17c.21,0,.29-.06.35-.27C12.42,10.86,13,8.43,13.65,6,13.77,5.52,13.88,5.05,14,4.55Zm17.73,32h1.68a.55.55,0,1,1,0,1.09H31.74v2.59h8.31V37.67H35.24a.54.54,0,0,1-.59-.58c0-.31.25-.51.62-.51h4.79V23.51h-.88V24c0,.15,0,.3,0,.44a.53.53,0,0,1-.57.54.53.53,0,0,1-.52-.54c0-.29,0-.58,0-.89h-.76v.36a.54.54,0,0,1-.53.58.55.55,0,0,1-.56-.56c0-.12,0-.24,0-.37H31.74Zm-18.87-23h6a1.07,1.07,0,0,1,.25,0,.49.49,0,0,1,.42.35.53.53,0,0,1-.11.55.66.66,0,0,1-.52.18H13a4.74,4.74,0,0,0,2.43,3.84,4.93,4.93,0,0,0,5.31-.12A4.69,4.69,0,0,0,23,14.65H21a.54.54,0,1,1,0-1.08c.71,0,1.41,0,2.12,0,.2,0,.26-.06.25-.26V4.55H15.13Zm21.57,1.09H24.51a5,5,0,0,0,9.93,0Zm1.52,0a4.28,4.28,0,0,0,0,.43,5,5,0,0,0,7.82,3.21,4.66,4.66,0,0,0,1.9-3.39c0-.21,0-.26-.24-.26H36Zm-24.46.05H1.76A4.67,4.67,0,0,0,6.4,19.18,4.92,4.92,0,0,0,11.5,14.67Zm37.41,5.81a.56.56,0,0,0-.54.58.54.54,0,0,0,.54.55.55.55,0,0,0,.54-.55A.56.56,0,0,0,48.91,20.48Z"/><path class="cls-1" d="M17.27,37.81H7a.63.63,0,0,1-.59-.57,2.26,2.26,0,0,1,0-.26V23.08c0-.6.23-.83.84-.83h20c.63,0,.86.23.86.86V37.2a.65.65,0,0,1-.63.61H17.27ZM7.76,36.49h19v-9H12.85a2.62,2.62,0,0,1-.28,0,.54.54,0,0,1-.47-.68c.08-.28.29-.41.67-.41h14V23.58h-19V26.4h3.13a.57.57,0,0,1,.57.32.53.53,0,0,1-.52.77c-1,0-2,0-3,0H7.76Z"/><path class="cls-1" d="M33.9,32.23a.81.81,0,0,1-.79.85.86.86,0,1,1,.79-.85Z"/></g></g></svg>