<svg xmlns="http://www.w3.org/2000/svg" viewBox="0 0 43.48 39.16"><defs><style>.cls-1{fill:#fff;}</style></defs><title>Fichier 19</title><g id="Calque_2" data-name="Calque 2"><g id="Page"><path class="cls-1" d="M43.48,19.45a3.43,3.43,0,0,1-.33.63,1.05,1.05,0,0,1-.87.37h-2V37.88a1.17,1.17,0,0,1-.76,1.2,1.28,1.28,0,0,1-.39.07H28.36a1.15,1.15,0,0,1-1.13-1c0-.11,0-.21,0-.32V31.63a5.45,5.45,0,0,0-.59-2.6,5.27,5.27,0,0,0-4.18-3,5.43,5.43,0,0,0-6.06,4.31,5.15,5.15,0,0,0-.11,1c0,2.16,0,4.32,0,6.48A1.17,1.17,0,0,1,15,39.15c-3.52,0-7,0-10.57,0A1.24,1.24,0,0,1,3.18,37.9q0-8.59,0-17.19v-.25h-2a1.12,1.12,0,0,1-1-.6,1.12,1.12,0,0,1,0-1.18,2.14,2.14,0,0,1,.28-.32L16.24,4.45,20.88.36A1.2,1.2,0,0,1,22.24.11a2,2,0,0,1,.38.27l6,5.28.25.22V5.65c0-1.3,0-2.59,0-3.89A1.24,1.24,0,0,1,30.14.48h6.93a1.22,1.22,0,0,1,1.28,1.3V14a.4.4,0,0,0,.16.35l4.55,4a1.51,1.51,0,0,1,.42.72ZM13.93,36.82v-.23c0-1.74,0-3.47,0-5.2a6.93,6.93,0,0,1,.17-1.57,7.66,7.66,0,0,1,4.25-5.36A7.41,7.41,0,0,1,23,23.78a7.81,7.81,0,0,1,6.58,7.83c0,1.67,0,3.33,0,5v.2H38V36.6q0-9.71,0-19.39a.4.4,0,0,0-.15-.34L31.09,11l-7.61-6.7L21.74,2.73l-.3.27L14.17,9.39l-8.51,7.5a.33.33,0,0,0-.14.29q0,9.72,0,19.44v.2Zm22-24.73V2.92H31.29a.28.28,0,0,0,0,.08V7.89a.32.32,0,0,0,.12.22l3.13,2.76Z"/></g></g></svg>