<svg xmlns="http://www.w3.org/2000/svg" viewBox="0 0 48.41 45.64"><defs><style>.cls-1{fill:#fff;}</style></defs><title>Fichier 13</title><g id="Calque_2" data-name="Calque 2"><g id="Page"><path class="cls-1" d="M25.28,42.7l1.58-.91,6.76-3.87a.3.3,0,0,0,.17-.29q.23-5.13.47-10.26c0-.84.06-1.69.11-2.54a1.07,1.07,0,0,1,2.14,0c0,.53,0,1.07,0,1.6-.09,2-.18,4.07-.28,6.11-.07,1.7-.15,3.4-.23,5.1a.36.36,0,0,0,.19.37c2.45,1.46,4.88,2.94,7.32,4.41l.18.1c.21.12.38,0,.41-.21.08-.86.15-1.72.23-2.58l.39-4.31L45,31.62l.39-4.27.33-3.75.39-4.31c0-.52.09-1,.14-1.56a.42.42,0,0,0-.15-.37L38,10.45l-.8-.68c0,.35,0,.67-.05,1s0,.87-.06,1.31a1.09,1.09,0,0,1-.72,1,1.08,1.08,0,0,1-1.19-.32,1,1,0,0,1-.25-.74c0-.75.07-1.49.1-2.24V9.6l-.27,0a1,1,0,0,1-.84-.75,1,1,0,0,1,.3-1.08c.44-.39.91-.75,1.38-1.1A1.06,1.06,0,0,1,37,6.73l1.69,1.44,8.78,7.52A2.55,2.55,0,0,1,48.39,18c-.13,1.26-.23,2.52-.34,3.79s-.23,2.54-.34,3.81-.23,2.53-.34,3.79L47,33.7l-.33,3.8-.39,4.27a8.65,8.65,0,0,1-.09.89,2.38,2.38,0,0,1-3.54,1.75c-1-.56-2-1.17-2.94-1.76L35,39.82a.27.27,0,0,0-.33,0l-9.91,5.68a1.14,1.14,0,0,1-1.18,0c-1.13-.66-2.26-1.3-3.39-2l-6.45-3.7a.28.28,0,0,0-.34,0L5.91,44.33a2.35,2.35,0,0,1-2.82-.14,2.46,2.46,0,0,1-.92-1.86c-.16-1.92-.34-3.83-.51-5.75-.14-1.56-.27-3.13-.41-4.69S1,28.76.82,27.2.57,24.37.45,23,.19,20.12.07,18.7A9.11,9.11,0,0,1,0,17.32a2.21,2.21,0,0,1,.83-1.55l9.71-8.31.88-.75a1.08,1.08,0,0,1,1.46,0c.47.36.93.73,1.4,1.11a1.08,1.08,0,0,1,.33,1.31,1.06,1.06,0,0,1-1.19.6h0c0,.42,0,.85,0,1.28.07,1.66.15,3.32.22,5,.06,1.25.12,2.5.16,3.75a1.06,1.06,0,0,1-1.47,1.05,1,1,0,0,1-.65-.8,10.9,10.9,0,0,1-.07-1.14c-.13-2.86-.25-5.72-.38-8.57,0-.16,0-.31,0-.49l-.12.08L2.28,17.38a.38.38,0,0,0-.14.35c.23,2.52.45,5.05.68,7.58s.47,5.23.71,7.84.43,4.94.65,7.41c.05.56.11,1.12.16,1.67,0,.33.19.42.48.24l5.28-3.18L12.29,38a.25.25,0,0,0,.15-.27c-.07-1.48-.13-3-.2-4.45a1.08,1.08,0,0,1,1-1.14,1.06,1.06,0,0,1,1.13,1c.06,1.15.11,2.31.16,3.46,0,.36,0,.73,0,1.08a.36.36,0,0,0,.13.22L23,42.62l.14.06V35.43a1.06,1.06,0,0,1,.69-1,1.09,1.09,0,0,1,1.22.33,1.27,1.27,0,0,1,.25.84V42.7Z"/><path class="cls-1" d="M15,8.58A8.8,8.8,0,0,1,20.24,1a8.89,8.89,0,0,1,8.92.54A1.08,1.08,0,1,1,28,3.33a7,7,0,0,0-2.71-1,6.82,6.82,0,0,0-5.64,1.54,6.83,6.83,0,0,0-2.52,6.06,6.76,6.76,0,0,0,1.68,4,1.15,1.15,0,0,1,.32.88,1,1,0,0,1-.65.91,1,1,0,0,1-1.15-.22,7.55,7.55,0,0,1-1.3-1.82A10,10,0,0,1,15,8.58Z"/><path class="cls-1" d="M33.41,9.75A8.93,8.93,0,0,1,29,17.12a8.83,8.83,0,0,1-5.76,1.3A8.92,8.92,0,0,1,19.7,17.3a1.07,1.07,0,0,1-.48-1.45,1.06,1.06,0,0,1,1.46-.45,7.64,7.64,0,0,0,2.49.84,6.82,6.82,0,0,0,5.56-1.59,6.84,6.84,0,0,0,2.52-5.28A6.86,6.86,0,0,0,29.85,5a1.22,1.22,0,0,1-.33-.9,1.08,1.08,0,0,1,1.93-.55,9,9,0,0,1,1.17,1.93A10.09,10.09,0,0,1,33.41,9.75Z"/><path class="cls-1" d="M41.38,26.29a2.9,2.9,0,0,1,1.69,5.39,2.75,2.75,0,0,1-3-.05,2.82,2.82,0,0,1-1.36-2.57,2.86,2.86,0,0,1,.56-1.58.48.48,0,0,0,.07-.29c-.1-.49-.22-1-.33-1.48a1.07,1.07,0,0,1,.69-1.31,1.06,1.06,0,0,1,1.36.7C41.2,25.48,41.27,25.88,41.38,26.29Zm1,2.9a.74.74,0,1,0-.75.73A.76.76,0,0,0,42.36,29.19Z"/><path class="cls-1" d="M24.26,7.06a.71.71,0,0,0,.58-.15c.94-.54,1.89-1.06,2.83-1.59.07,0,.15-.1.21-.09a.5.5,0,0,1,.3.11c.1.12.05.26,0,.39-.51.92-1,1.83-1.54,2.74a1.54,1.54,0,0,0-.24.82A2.17,2.17,0,0,1,24,11.45a.58.58,0,0,0-.32.07l-3,1.66-.1.06c-.14.07-.27.1-.39,0a.3.3,0,0,1,0-.39l.53-.94,1.2-2.15a.51.51,0,0,0,.06-.3A2.21,2.21,0,0,1,24.26,7.06Z"/><path class="cls-1" d="M23.12,24.93V20a1.08,1.08,0,0,1,2.14-.2,1.94,1.94,0,0,1,0,.24V29.8A1.1,1.1,0,0,1,24.39,31a1.07,1.07,0,0,1-1.27-1.1Z"/><path class="cls-1" d="M5.06,31.8a2,2,0,0,1,1.19-1.74.39.39,0,0,0,.22-.25c.18-.59.35-1.18.56-1.75a1.06,1.06,0,0,1,1.79-.37A1.08,1.08,0,0,1,9,28.83c-.16.49-.31,1-.47,1.46a.25.25,0,0,0,.06.27,2,2,0,0,1-1.29,3.37A2.06,2.06,0,0,1,5.06,31.8Z"/><path class="cls-1" d="M14.17,27.89c0,.88.08,1.77.11,2.66a1.08,1.08,0,0,1-1.44,1.05,1,1,0,0,1-.69-.84,11.67,11.67,0,0,1-.07-1.18c-.07-1.47-.13-2.93-.2-4.4a1.09,1.09,0,0,1,1-1.12,1.07,1.07,0,0,1,1.17,1C14.08,26,14.12,27,14.17,27.89Z"/><path class="cls-1" d="M14.4,22.31a1,1,0,0,1-1,1.06,2.68,2.68,0,0,0-2.29,1.23,5.46,5.46,0,0,0-.36.48A1.08,1.08,0,1,1,9,23.89a6.43,6.43,0,0,1,2.2-2.17,4,4,0,0,1,2.16-.5A1.09,1.09,0,0,1,14.4,22.31Z"/><path class="cls-1" d="M32.34,26.22a2.37,2.37,0,0,1-.18.53C31.44,28,30.7,29.23,30,30.46A1,1,0,0,1,28.8,31a1.07,1.07,0,0,1-.72-1.59c.74-1.25,1.48-2.49,2.23-3.72a1.06,1.06,0,0,1,1.25-.48A1.15,1.15,0,0,1,32.34,26.22Z"/><path class="cls-1" d="M17,23.58a1,1,0,0,1,.75.46l2.53,3.53a1,1,0,0,1,.15.84,1,1,0,0,1-.87.81,1,1,0,0,1-1.06-.44c-.37-.52-.71-1.05-1.08-1.57S16.45,26,16,25.35a1.07,1.07,0,0,1-.15-1.16A1.14,1.14,0,0,1,17,23.58Z"/><path class="cls-1" d="M36.38,20.62c.54.09,1.09.17,1.63.27a1.08,1.08,0,0,1,.85,1.36,1.11,1.11,0,0,1-1.42.73,3.7,3.7,0,0,0-1.78-.07,2.34,2.34,0,0,0-1.07.61,1.1,1.1,0,0,1-1.13.26A1.07,1.07,0,0,1,33.08,22a4.65,4.65,0,0,1,3.29-1.28Z"/><path class="cls-1" d="M24.83,34a4.92,4.92,0,0,1-2.92-1.18,7.21,7.21,0,0,1-.66-.58,1.05,1.05,0,0,1-.08-1.4,1,1,0,0,1,1.37-.28,3.22,3.22,0,0,1,.41.32,3.66,3.66,0,0,0,1.56.9,1.9,1.9,0,0,0,1,0,1.07,1.07,0,0,1,1.39.7,1.09,1.09,0,0,1-.76,1.36,6.08,6.08,0,0,1-.74.16C25.23,34,25,34,24.83,34Z"/><path class="cls-1" d="M36.88,17l-.09,2A1.07,1.07,0,0,1,35.66,20a1.06,1.06,0,0,1-1-1.11c0-1.33.12-2.65.19-4a1.07,1.07,0,0,1,1.11-1A1.05,1.05,0,0,1,37,15c0,.66,0,1.32-.07,2Z"/></g></g></svg>