<svg xmlns="http://www.w3.org/2000/svg" viewBox="0 0 52.36 34.74"><defs><style>.cls-1{fill:#fff;}</style></defs><title>Fichier 17</title><g id="Calque_2" data-name="Calque 2"><g id="Page"><g id="_Groupe_" data-name="&lt;Groupe&gt;"><path id="_Tracé_transparent_" data-name="&lt;Tracé transparent&gt;" class="cls-1" d="M.26,30.42a.91.91,0,0,0,.65.27H15.46a20,20,0,0,0-.3,3.13.9.9,0,0,0,.91.92H36.13a.9.9,0,0,0,.9-.88,17.77,17.77,0,0,0-.23-3.17H51.45a.91.91,0,0,0,.91-.88c0-.31.19-7.66-4.41-11.88a.91.91,0,0,0-1.17-.05c-.05,0-5.41,4.07-10.4,0a.89.89,0,0,0-1.16,0,13.47,13.47,0,0,0-2.85,3.91.91.91,0,0,0-.91.11c-.22.17-5.44,4.05-10.4,0a.89.89,0,0,0-.84-.16,12.23,12.23,0,0,0-2.76-3.85.89.89,0,0,0-1.16-.05c-.05,0-5.41,4.07-10.4,0a.91.91,0,0,0-1.17,0C4.55,18.07.11,22,0,29.77A.91.91,0,0,0,.26,30.42ZM35.9,19.79c4.74,3.31,9.58,1,11.32,0,2.69,2.89,3.21,7.26,3.31,9.12H36.44a14.82,14.82,0,0,0-2.69-5.7A14.26,14.26,0,0,1,35.9,19.79ZM20.58,23.84c4.74,3.31,9.58,1,11.31,0,2.7,2.89,3.22,7.26,3.31,9.11H17A15.27,15.27,0,0,1,20.58,23.84ZM5.42,19.79c4.74,3.31,9.58,1,11.32,0a11.26,11.26,0,0,1,2.08,3.36,16.1,16.1,0,0,0-2.94,5.76h-14A15.27,15.27,0,0,1,5.42,19.79Z"/><path id="_Tracé_transparent_2" data-name="&lt;Tracé transparent&gt;" class="cls-1" d="M10.94,17.16h0A8.52,8.52,0,0,0,17,14.64a7.1,7.1,0,0,0,.63-.71A8.58,8.58,0,0,0,26.1,21.2h0a8.56,8.56,0,0,0,8.49-7.45,8.59,8.59,0,0,0,6.83,3.41h0A8.58,8.58,0,0,0,41.42,0a8.6,8.6,0,0,0-8.5,7.45A8.55,8.55,0,0,0,20,6.57a8.17,8.17,0,0,0-.62.7A8.59,8.59,0,0,0,10.94,0,8.59,8.59,0,0,0,2.36,8.58,8.59,8.59,0,0,0,10.94,17.16ZM36.64,3.8a6.76,6.76,0,1,1,9.56,9.56,6.7,6.7,0,0,1-4.78,2h0a6.76,6.76,0,0,1-6.76-6.76A6.68,6.68,0,0,1,36.64,3.8ZM21.31,7.85A6.76,6.76,0,1,1,26.1,19.39h0A6.76,6.76,0,0,1,21.31,7.85ZM6.16,3.8a6.69,6.69,0,0,1,4.78-2,6.77,6.77,0,0,1,0,13.53h0A6.75,6.75,0,0,1,6.16,3.8Z"/></g></g></g></svg>