<svg xmlns="http://www.w3.org/2000/svg" viewBox="0 0 42.77 41.33"><defs><style>.cls-1{fill:#fff;}</style></defs><title>Fichier 20</title><g id="Calque_2" data-name="Calque 2"><g id="Page"><path class="cls-1" d="M42.77,40.23v.35a3.3,3.3,0,0,1-.26.45,1,1,0,0,1-.84.3H.88A.94.94,0,0,1,1,39.45c1.06,0,2.12,0,3.18,0h.21V6.13H3.63a1.82,1.82,0,0,1-1.9-1.89V1.89A1.83,1.83,0,0,1,3.61,0H39.16A1.83,1.83,0,0,1,41,1.88c0,.79,0,1.59,0,2.39A1.8,1.8,0,0,1,39.47,6.1a6.92,6.92,0,0,1-.91,0h-.18V39.45h.23c1,0,2.1,0,3.15,0a.92.92,0,0,1,1,.72Zm-18.11-7.1H18.12v6.31h6.54v-.2c0-.35,0-.7,0-1.06a.93.93,0,0,1,.92-.92.91.91,0,0,1,1,.85c0,.37,0,.75,0,1.12,0,.07,0,.14,0,.2h9.89V6.13H11.55a.94.94,0,0,1-.73-1.4,1,1,0,0,1,.94-.5H39.13V1.91H3.64V4.23H9.22a.91.91,0,0,1,.81.39.88.88,0,0,1,.08,1,.91.91,0,0,1-.87.53H6.32v33.3h9.89V32.28a1,1,0,0,1,1.06-1.06H25.5a1.58,1.58,0,0,1,.38,0,1,1,0,0,1,.68,1V36a2.29,2.29,0,0,1,0,.25A.95.95,0,0,1,24.66,36V33.13Z"/><path class="cls-1" d="M24.57,23.86V20.63a.93.93,0,0,1,.9-1h5.1a1,1,0,0,1,1.07,1.07v6.36a1,1,0,0,1-1,1h-5a1,1,0,0,1-1-1Zm1.91,2.33h3.25V21.55H26.48Z"/><path class="cls-1" d="M11.13,12.68V9.44a.93.93,0,0,1,1-1c1.71,0,3.42,0,5.14,0a.93.93,0,0,1,1,1V16a.93.93,0,0,1-.93.94q-2.61,0-5.22,0a.92.92,0,0,1-.92-.95C11.12,14.86,11.13,13.77,11.13,12.68ZM13,15h3.25V10.37H13Z"/><path class="cls-1" d="M13,21.53v4.66h3.25V21.57a2.85,2.85,0,0,1-.44-.16.94.94,0,0,1,.37-1.76,9.55,9.55,0,0,1,1.07,0,.94.94,0,0,1,.91,1V27a1,1,0,0,1-1.06,1.07h-5A1,1,0,0,1,11.13,27v-6.4a.92.92,0,0,1,.91-1c.67,0,1.34,0,2,0a.91.91,0,0,1,.85.95.92.92,0,0,1-.85.91C13.71,21.54,13.38,21.53,13,21.53Z"/><path class="cls-1" d="M29.74,15V10.37H26.49V15h.62a1,1,0,0,1,.11,1.9q-.86,0-1.71,0a.94.94,0,0,1-.94-1V9.46a.94.94,0,0,1,1-1q2.55,0,5.1,0a.94.94,0,0,1,1,1c0,2.16,0,4.33,0,6.49a.93.93,0,0,1-.95,1c-.37,0-.75,0-1.12,0A.95.95,0,0,1,29.5,15Z"/></g></g></svg>